<svg width="105" height="26" viewBox="0 0 105 26" fill="none" xmlns="http://www.w3.org/2000/svg">
<path d="M21.1605 9.62751C21.1605 4.31232 17.0989 1.00287 11.0315 1.00287H0.250732V25.5731H6.36821V18.4527H10.1791L15.4441 25.5731H22.8152L16.447 17.2493C19.4055 15.8954 21.2608 12.8868 21.1605 9.62751ZM10.8811 12.9871H6.36821V6.41834H10.8811C13.2378 6.41834 15.0931 7.67192 15.0931 9.67765C15.0931 11.6834 13.2378 12.9871 10.8811 12.9871ZM25.0716 6.16762H43.6246V1.00287H25.0716V6.16762ZM31.139 15.9957H38.51V10.8309H25.0716V15.9957H31.139ZM97.6791 11.0817L94.2693 10.2794C92.414 9.87822 91.4613 9.32665 91.4613 7.97278C91.4613 6.36819 92.8653 5.51576 94.9713 5.51576C97.4785 5.51576 98.6318 6.76934 98.9327 8.62464H105.05C104.448 2.00573 98.5315 0.451289 94.5201 0.451289C88.7536 0.451289 84.7923 3.56017 84.7923 8.47421C84.7923 12.3854 87.0487 14.6418 91.9126 15.6948L95.9742 16.5974C98.0802 16.9986 98.5817 17.851 98.5817 18.7034C98.5817 20.0573 97.3782 20.8596 95.1218 20.8596C92.2135 20.8596 90.3582 19.5559 89.957 17.3997H83.8395C84.4413 23.467 89.4054 26.0745 94.9212 26.0745C101.039 26.0745 105.1 23.0158 105.1 18.1017C105.05 13.8897 102.142 12.0845 97.6791 11.0817ZM73.0086 9.77794H77.5716L80.8811 0H75.616L73.0086 9.77794ZM56.9628 1.00287H47.0845V25.5731H56.9628C64.6347 25.5731 70.2006 20.5086 70.2006 13.2378C70.2006 5.96705 64.6848 1.00287 56.9628 1.00287ZM56.9628 20.0573H53.1519V6.46848H56.9628C60.9241 6.46848 63.9828 9.37679 63.9828 13.1877C64.033 17.0989 60.9241 20.0573 56.9628 20.0573ZM25.0716 25.5731H43.6246V20.308H25.0716V25.5731Z" fill="white"/>
</svg>
